<svg width="100" height="100" viewBox="0 0 100 100" fill="none" xmlns="http://www.w3.org/2000/svg">
<path d="M56.9883 0.482935C57.1914 0.511459 57.1914 0.511459 57.398 0.539984C65.1384 1.6679 72.7506 4.65229 79.0766 9.27804C79.2001 9.36718 79.3225 9.45751 79.4495 9.55022C79.8034 9.81169 80.1525 10.0791 80.5017 10.3477C80.6003 10.4226 80.6003 10.4226 80.7012 10.4998C81.5859 11.1761 82.4314 11.8774 83.2437 12.6416C83.505 12.884 83.7686 13.1182 84.0394 13.3511C84.588 13.8301 85.1022 14.34 85.6152 14.857C85.7518 14.9925 85.7518 14.9925 85.8908 15.1304C86.4537 15.6961 86.9916 16.2761 87.5082 16.8846C87.6044 16.9975 87.6044 16.9975 87.7018 17.1116C90.1422 19.9986 92.1824 23.1042 94.0397 26.3928C94.1169 26.5295 94.1169 26.5295 94.1952 26.6674C98.145 33.7035 100.011 42.003 99.9999 50.0374C99.9999 50.18 99.9999 50.18 99.9999 50.325C99.9964 52.0235 99.918 53.7028 99.7399 55.3929C99.728 55.5094 99.7173 55.6247 99.7054 55.7447C99.1473 61.2833 97.5726 66.9383 95.0063 71.8897C94.8603 72.1726 94.7154 72.4578 94.5705 72.7419C92.8118 76.1743 90.6932 79.2978 88.2207 82.2537C88.172 82.3131 88.1221 82.3725 88.0711 82.4331C87.2066 83.4719 86.2981 84.4536 85.3397 85.4056C85.1248 85.6196 84.911 85.8347 84.6973 86.0498C83.8897 86.8592 83.062 87.6044 82.1642 88.3152C82.0277 88.4305 81.8923 88.5469 81.7569 88.6634C80.8627 89.4407 79.9352 90.1419 78.9579 90.8111C78.8676 90.8729 78.7762 90.9359 78.6836 91C76.388 92.5737 74.032 93.9821 71.5239 95.1896C71.278 95.3085 71.0322 95.4297 70.7876 95.5521C66.7024 97.5381 62.2408 98.7552 57.7674 99.4647C57.6237 99.4885 57.4788 99.5111 57.3292 99.5349C54.9458 99.8938 52.5683 100.008 50.16 99.9996C49.9581 99.9996 49.9581 99.9996 49.7526 99.9996C47.5913 99.9936 45.4727 99.9152 43.3316 99.6062C43.1915 99.586 43.0513 99.567 42.9076 99.5468C37.7715 98.7968 32.639 97.2862 28.0349 94.8687C27.7332 94.7118 27.4304 94.5573 27.1264 94.4028C23.2586 92.4251 19.6401 89.9684 16.4278 87.0351C16.2402 86.864 16.0514 86.6952 15.8614 86.5276C14.6121 85.4258 13.4055 84.2468 12.3367 82.9668C12.2453 82.8622 12.1538 82.7576 12.06 82.6506C8.23258 78.2483 5.17822 73.0033 3.19265 67.5159C3.13921 67.3685 3.08577 67.2224 3.03114 67.0714C1.6916 63.3442 0.836563 59.5587 0.342545 55.6306C0.318794 55.4512 0.318795 55.4512 0.295044 55.2693C-0.182348 51.4553 -0.0469688 47.4298 0.4613 43.6265C0.4803 43.4815 0.4993 43.3377 0.519488 43.1891C1.64647 35.0192 4.82908 26.81 9.92483 20.2945C10.1611 19.9891 10.3868 19.6765 10.6148 19.3663C11.2299 18.545 11.8961 17.7713 12.5742 17.0035C12.6502 16.9167 12.7262 16.8299 12.8046 16.7408C13.4851 15.973 14.1952 15.2397 14.9208 14.5147C15.112 14.3222 15.3032 14.1296 15.4944 13.9359C16.2651 13.1598 17.0608 12.4538 17.9182 11.774C18.1367 11.5885 18.354 11.4031 18.5713 11.2165C24.4829 6.28771 31.7839 2.83028 39.2939 1.19605C39.4103 1.1699 39.5279 1.14376 39.6478 1.11761C45.3195 -0.124403 51.2406 -0.324076 56.9883 0.482935Z" fill="#FAFCFC"/>
<path d="M56.9883 0.482935C57.1914 0.511459 57.1914 0.511459 57.398 0.539984C65.1385 1.6679 72.7506 4.65229 79.0766 9.27804C79.2001 9.36718 79.3225 9.45751 79.4495 9.55022C79.8034 9.81169 80.1525 10.0791 80.5017 10.3477C80.6003 10.4226 80.6003 10.4226 80.7012 10.4999C81.5859 11.1761 82.4314 11.8774 83.2437 12.6416C83.505 12.884 83.7686 13.1182 84.0394 13.3511C84.588 13.8301 85.1022 14.34 85.6152 14.857C85.7518 14.9925 85.7518 14.9925 85.8908 15.1304C86.4537 15.6961 86.9916 16.2761 87.5082 16.8846C87.6044 16.9975 87.6044 16.9975 87.7018 17.1116C90.1422 19.9986 92.1824 23.1042 94.0397 26.3928C94.1169 26.5295 94.1169 26.5295 94.1952 26.6674C98.145 33.7035 100.011 42.003 100 50.0374C100 50.1801 100 50.18 100 50.3251C99.9964 52.0235 99.918 53.7029 99.7399 55.3929C99.728 55.5094 99.7173 55.6247 99.7054 55.7447C99.1473 61.2833 97.5726 66.9383 95.0063 71.8897C94.8603 72.1726 94.7154 72.4578 94.5705 72.7419C92.8118 76.1743 90.6932 79.2978 88.2207 82.2537C88.172 82.3131 88.1221 82.3725 88.0711 82.4331C87.2066 83.4719 86.2981 84.4536 85.3397 85.4056C85.1248 85.6196 84.911 85.8347 84.6973 86.0498C83.8897 86.8592 83.062 87.6044 82.1642 88.3152C82.0277 88.4305 81.8923 88.5469 81.7569 88.6634C80.8627 89.4407 79.9352 90.1419 78.9579 90.8111C78.8676 90.8729 78.7762 90.9359 78.6836 91.0001C76.388 92.5737 74.032 93.9821 71.5239 95.1896C71.278 95.3085 71.0322 95.4297 70.7876 95.5521C66.7024 97.5381 62.2408 98.7552 57.7674 99.4648C57.6237 99.4885 57.4788 99.5111 57.3292 99.5349C54.9458 99.8938 52.5683 100.008 50.16 99.9996C49.9581 99.9996 49.9581 99.9996 49.7526 99.9996C47.5913 99.9936 45.4727 99.9152 43.3316 99.6062C43.1915 99.586 43.0513 99.567 42.9076 99.5468C37.7715 98.7968 32.639 97.2862 28.0349 94.8687C27.7332 94.7118 27.4304 94.5573 27.1264 94.4028C23.2586 92.4251 19.6401 89.9684 16.4278 87.0351C16.2402 86.864 16.0514 86.6952 15.8614 86.5276C14.6121 85.4259 13.4055 84.2468 12.3367 82.9668C12.2453 82.8622 12.1538 82.7576 12.06 82.6506C8.23258 78.2483 5.17822 73.0034 3.19265 67.5159C3.13921 67.3685 3.08577 67.2224 3.03114 67.0714C1.6916 63.3442 0.836563 59.5587 0.342545 55.6306C0.318794 55.4512 0.318795 55.4512 0.295044 55.2693C-0.182348 51.4553 -0.0469688 47.4298 0.4613 43.6265C0.4803 43.4815 0.4993 43.3377 0.519488 43.1891C1.64647 35.0192 4.82908 26.81 9.92483 20.2945C10.1612 19.9891 10.3868 19.6765 10.6148 19.3663C11.2299 18.545 11.8962 17.7713 12.5742 17.0035C12.6502 16.9167 12.7262 16.83 12.8046 16.7408C13.4851 15.973 14.1952 15.2397 14.9208 14.5147C15.112 14.3222 15.3032 14.1296 15.4944 13.9359C16.2651 13.1598 17.0608 12.4538 17.9182 11.774C18.1367 11.5885 18.354 11.4031 18.5713 11.2165C24.4829 6.28771 31.7839 2.83028 39.294 1.19605C39.4103 1.1699 39.5279 1.14376 39.6478 1.11761C45.3195 -0.124403 51.2406 -0.324076 56.9883 0.482935ZM24.5684 12.8436C24.5007 12.89 24.433 12.9375 24.363 12.9851C22.8643 14.0167 21.4416 15.1529 20.1044 16.3854C19.8646 16.6041 19.6211 16.8169 19.3765 17.0284C18.8314 17.5038 18.3172 18.0078 17.8066 18.5188C17.7127 18.6127 17.6189 18.7066 17.5215 18.8041C16.9373 19.3948 16.3922 19.9926 15.8815 20.6475C15.6725 20.9114 15.4528 21.155 15.2236 21.401C12.8664 24.0324 10.9948 27.2522 9.48663 30.4338C9.41775 30.5765 9.41775 30.5765 9.34768 30.7227C6.76834 36.1257 5.09272 42.268 5.06896 48.2808C5.06778 48.4163 5.06778 48.5518 5.06659 48.6908C5.0654 48.9773 5.06422 49.2637 5.06422 49.5513C5.06303 49.9768 5.05947 50.4035 5.0559 50.8302C5.02621 57.3374 6.59021 63.9468 9.48663 69.7741C9.54719 69.8965 9.60776 70.019 9.66951 70.1461C10.5281 71.8826 11.4758 73.5263 12.5742 75.1225C12.6265 75.1986 12.6787 75.2758 12.7322 75.3543C13.7511 76.8471 14.8899 78.2614 16.1131 79.5902C16.3281 79.8267 16.5371 80.0656 16.7449 80.3081C17.2781 80.9201 17.8493 81.493 18.4229 82.0683C18.5274 82.174 18.6319 82.2798 18.7388 82.388C19.5522 83.2045 20.4132 83.9378 21.3264 84.639C21.5996 84.8684 21.5996 84.8684 21.8371 85.225C21.9155 85.1858 21.9938 85.1465 22.0746 85.1061C22.039 85.0455 22.0021 84.9837 21.9653 84.9219C19.5285 80.4638 20.4987 74.5187 21.8371 69.893C22.6529 67.1629 23.7324 64.5755 25.0434 62.0487C25.3795 62.3411 25.528 62.6477 25.7108 63.0518C27.1193 65.9174 29.7544 67.9497 32.7328 68.9766C33.4061 69.2013 34.0806 69.4211 34.7587 69.6303C37.192 70.3945 38.9139 71.488 40.13 73.7937C41.4137 76.317 41.7308 79.1112 42.0253 81.8971C42.0645 81.8971 42.1037 81.8971 42.1441 81.8971C42.1536 81.8139 42.1642 81.7307 42.1749 81.644C42.8388 76.2682 44.2876 70.5217 48.6459 66.9217C52.4911 64.0026 57.3244 63.5023 61.9653 63.0102C66.0505 62.599 66.0505 62.599 69.9326 61.3356C70.0549 61.2797 70.176 61.225 70.3019 61.168C72.4133 60.0746 73.7434 58.1408 74.4535 55.929C74.7552 54.9484 74.9582 54.0463 74.9202 53.0159C74.9986 53.0159 75.077 53.0159 75.1577 53.0159C75.2052 53.1644 75.2528 53.3118 75.3014 53.4651C75.4843 54.0166 75.6981 54.5526 75.919 55.091C79.2952 63.3192 80.6466 72.604 77.7703 81.184C77.7442 81.2648 77.7193 81.3444 77.692 81.4276C77.0376 83.4553 75.9617 85.3522 74.678 87.0458C74.4856 87.3085 74.3443 87.5474 74.2077 87.8398C74.1293 87.9574 74.051 88.0751 73.9702 88.1963C77.6195 86.549 81.2617 82.8872 83.8268 79.8766C83.9277 79.7625 84.0287 79.6484 84.132 79.5308C87.9666 75.1712 90.8749 70.0392 92.7334 64.5446C92.7726 64.4305 92.8106 64.3152 92.8509 64.1976C93.896 61.0646 94.5289 57.8413 94.871 54.561C94.8828 54.4457 94.8959 54.3316 94.9078 54.2127C95.0301 52.8863 95.0182 51.554 95.0194 50.2228C95.0194 50.0933 95.0194 49.9637 95.0194 49.8306C95.0182 47.7768 94.9327 45.7789 94.6334 43.7454C94.6097 43.5695 94.6097 43.5695 94.5848 43.3888C93.4245 34.8671 89.5543 26.5842 83.7318 20.2612C83.5869 20.102 83.4432 19.9427 83.3043 19.7799C82.7105 19.0858 82.0752 18.438 81.4303 17.7927C81.2451 17.6061 81.061 17.4195 80.877 17.2329C80.1169 16.4686 79.3272 15.7722 78.4829 15.1018C78.3594 14.9984 78.237 14.8938 78.1147 14.7881C71.7293 9.29706 63.3619 6.22115 55.0883 5.23705C54.9719 5.22279 54.8555 5.20852 54.7356 5.19426C44.2864 3.98196 33.1876 6.82492 24.5684 12.8436Z" fill="#006938"/>
<path d="M26.4478 33.9699C26.5927 33.9699 26.7376 33.9699 26.8872 33.9699C27.0084 33.9699 27.0084 33.9699 27.1319 33.9699C27.4062 33.9687 27.6793 33.9699 27.9536 33.9711C28.1508 33.9711 28.3479 33.9711 28.545 33.9699C29.0877 33.9699 29.6316 33.9711 30.1755 33.9723C30.761 33.9723 31.3465 33.9723 31.9331 33.9723C32.9484 33.9723 33.9626 33.9735 34.978 33.9747C36.447 33.9759 37.9148 33.977 39.3826 33.977C41.7636 33.9782 44.1446 33.9794 46.5268 33.9818C48.8401 33.9842 51.1547 33.9854 53.468 33.9866C53.6818 33.9866 53.6818 33.9866 53.9003 33.9866C54.6152 33.9866 55.3301 33.9877 56.045 33.9877C61.9803 33.9901 67.9156 33.9937 73.851 33.9996C74.0089 34.3134 73.9864 34.5487 73.9864 34.9005C73.9876 35.042 73.9887 35.1834 73.9887 35.3284C73.9887 35.4841 73.9887 35.6398 73.9899 35.8014C73.9899 35.9666 73.9899 36.1307 73.9911 36.2959C73.9923 36.7463 73.9935 37.1968 73.9935 37.6472C73.9947 37.9301 73.9947 38.2118 73.9959 38.4946C73.9971 39.3813 73.9982 40.2679 73.9982 41.1546C73.9994 42.1719 74.0006 43.1893 74.0042 44.2067C74.0077 44.9971 74.0089 45.7863 74.0089 46.5754C74.0089 47.0449 74.0089 47.5156 74.0113 47.985C74.0457 56.0444 74.0457 56.0444 71.3868 58.822C70.7396 59.4401 69.6863 60.385 68.7446 60.385C68.5688 60.0331 68.6115 59.717 68.6104 59.3248C68.6104 59.1964 68.6104 59.1964 68.6104 59.0657C68.6092 58.7769 68.6092 58.4881 68.6092 58.2004C68.6092 57.9936 68.6092 57.788 68.608 57.5824C68.6068 57.1367 68.6068 56.6922 68.6068 56.2477C68.6056 55.5441 68.6032 54.8417 68.6009 54.138C68.6009 53.898 68.5997 53.6567 68.5985 53.4166C68.5985 53.2966 68.5985 53.1753 68.5985 53.0517C68.5925 51.4139 68.589 49.7762 68.5878 48.1384C68.5866 47.0354 68.5842 45.9313 68.5795 44.8271C68.5771 44.2424 68.5759 43.6588 68.5759 43.074C68.5771 42.5249 68.5747 41.9747 68.5712 41.4244C68.5712 41.2235 68.5712 41.0215 68.5712 40.8194C68.5724 40.5437 68.5712 40.2691 68.5688 39.9934C68.5676 39.8389 68.5676 39.6844 68.5676 39.5263C68.4975 39.0378 68.3408 38.7775 68.032 38.3972C67.8016 38.2938 67.8016 38.2938 67.5499 38.308C67.4561 38.3069 67.3634 38.3057 67.2661 38.3045C67.1663 38.3057 67.0666 38.308 66.9632 38.3104C66.8599 38.3104 66.7566 38.3104 66.6497 38.3104C66.4312 38.3104 66.2115 38.3128 65.993 38.3176C65.6581 38.3223 65.3244 38.3223 64.9895 38.3199C64.777 38.3223 64.5644 38.3235 64.3506 38.3259C64.2509 38.3259 64.1511 38.3247 64.0478 38.3247C63.4766 38.3389 63.4766 38.3389 62.985 38.6171C62.6489 39.0996 62.6703 39.5596 62.6703 40.1241C62.6691 40.2632 62.6691 40.2632 62.6679 40.4034C62.6667 40.7124 62.6655 41.0226 62.6643 41.3317C62.6631 41.5527 62.662 41.7738 62.6608 41.996C62.6572 42.5974 62.6548 43.1988 62.6525 43.8014C62.6501 44.4302 62.6465 45.0589 62.643 45.6864C62.637 46.8773 62.6323 48.0682 62.6275 49.2591C62.6216 50.6153 62.6145 51.9702 62.6085 53.3263C62.5943 56.1146 62.5824 58.9029 62.5693 61.6923C60.4531 61.9277 60.4531 61.9277 58.2942 62.1677C58.1137 61.8064 58.1588 61.4309 58.16 61.0339C58.16 60.8948 58.16 60.8948 58.16 60.751C58.1588 60.4361 58.1588 60.1211 58.1588 59.8061C58.1588 59.5815 58.1588 59.3569 58.1576 59.1311C58.1564 58.6461 58.1564 58.16 58.1564 57.6751C58.1552 56.9073 58.1529 56.1395 58.1505 55.3717C58.1505 55.1091 58.1493 54.8476 58.1481 54.5849C58.1481 54.3876 58.1481 54.3876 58.1481 54.1856C58.1422 52.398 58.1386 50.6105 58.1374 48.823C58.1362 47.619 58.1339 46.4138 58.1291 45.2086C58.1267 44.5704 58.1255 43.9333 58.1255 43.2951C58.1267 42.6949 58.1244 42.0947 58.1208 41.4945C58.1208 41.2746 58.1208 41.0535 58.1208 40.8337C58.122 40.533 58.1208 40.2323 58.1184 39.9316C58.1184 39.8448 58.1196 39.7569 58.1208 39.6677C58.1125 39.0948 57.9914 38.7977 57.5816 38.3972C57.3489 38.3104 57.3489 38.3104 57.0995 38.3223C57.0057 38.3199 56.9131 38.3187 56.8157 38.3176C56.7159 38.3187 56.6162 38.3211 56.5129 38.3223C56.4095 38.3223 56.3062 38.3211 56.1993 38.3211C55.9808 38.3211 55.7611 38.3235 55.5426 38.3259C55.2078 38.3306 54.8741 38.3282 54.5392 38.3259C54.3266 38.3271 54.114 38.3282 53.9003 38.3294C53.8005 38.3294 53.7008 38.3282 53.5974 38.3282C53.0262 38.3389 53.0262 38.3389 52.5346 38.6171C52.1855 39.1186 52.2199 39.6095 52.2199 40.1966C52.2187 40.2964 52.2187 40.3963 52.2175 40.4997C52.2163 40.8349 52.2151 41.17 52.214 41.5064C52.2128 41.7465 52.2116 41.9865 52.2104 42.2266C52.2068 42.8791 52.2045 43.5316 52.2021 44.1853C52.1997 44.8675 52.1961 45.5486 52.1926 46.2308C52.1866 47.5227 52.1819 48.8146 52.1771 50.1066C52.1712 51.5768 52.1641 53.047 52.1581 54.5172C52.1439 57.5432 52.132 60.568 52.119 63.594C52.0489 63.6261 51.9788 63.6593 51.9064 63.6926C51.5822 63.8424 51.258 63.9945 50.9338 64.1466C50.8233 64.1978 50.7129 64.2489 50.5989 64.3012C49.6358 64.7552 48.7962 65.3114 47.9626 65.971C47.6502 65.6585 47.6965 65.435 47.6942 65.0095C47.6942 64.9061 47.6954 64.8039 47.6954 64.6981C47.6954 64.59 47.6954 64.4818 47.6942 64.3701C47.6942 64.004 47.6942 63.6391 47.6954 63.2731C47.6954 63.0128 47.6942 62.7513 47.6942 62.4898C47.693 61.9265 47.693 61.3631 47.693 60.7997C47.693 59.9084 47.6918 59.0181 47.6894 58.1267C47.687 56.8776 47.6847 55.6285 47.6835 54.3793C47.6823 54.3009 47.6823 54.2212 47.6823 54.1392C47.6811 53.0149 47.6811 51.8905 47.6799 50.765C47.6799 50.6866 47.6799 50.6069 47.6799 50.5249C47.6799 50.4465 47.6799 50.3668 47.6799 50.286C47.6799 48.9668 47.6775 47.6487 47.674 46.3294C47.6716 45.444 47.6716 44.5585 47.6728 43.6731C47.6728 43.1216 47.6704 42.5701 47.6692 42.0186C47.668 41.7631 47.668 41.5076 47.6692 41.252C47.6704 40.9026 47.6692 40.5544 47.6669 40.2049C47.668 40.1039 47.6692 40.0017 47.6704 39.8983C47.6621 39.2482 47.554 38.8964 47.1313 38.3972C46.9009 38.2938 46.9009 38.2938 46.6491 38.308C46.5553 38.3069 46.4627 38.3057 46.3653 38.3045C46.2656 38.3057 46.1658 38.308 46.0625 38.3104C45.9592 38.3104 45.8559 38.3104 45.749 38.3104C45.5305 38.3104 45.3108 38.3128 45.0923 38.3176C44.7574 38.3223 44.4237 38.3223 44.0888 38.3199C43.8762 38.3223 43.6636 38.3235 43.4499 38.3259C43.3501 38.3259 43.2504 38.3247 43.1471 38.3247C42.5759 38.3389 42.5759 38.3389 42.0842 38.6171C41.8063 39.0164 41.7731 39.3361 41.7719 39.8092C41.7707 39.9292 41.7695 40.0504 41.7695 40.174C41.7695 40.3071 41.7695 40.4391 41.7695 40.5758C41.7683 40.716 41.7683 40.8574 41.7671 41.0012C41.766 41.3923 41.7648 41.7833 41.7636 42.1743C41.7636 42.5951 41.7612 43.017 41.76 43.4377C41.7576 44.1675 41.7553 44.8984 41.7529 45.6282C41.7505 46.6836 41.747 47.739 41.7434 48.7944C41.7386 50.5059 41.7327 52.2186 41.728 53.9312C41.7232 55.5952 41.7185 57.2579 41.7137 58.9219C41.7125 59.0752 41.7125 59.0752 41.7125 59.2321C41.7101 59.7467 41.709 60.2613 41.7078 60.7748C41.6935 65.0428 41.6816 69.3096 41.6686 73.5776C41.1924 73.4184 41.1128 73.1307 40.8967 72.7088C40.1663 71.3646 39.0334 69.9692 37.5597 69.4213C37.2747 69.1801 37.2747 69.1801 37.22 68.9507C37.1987 68.6322 37.1975 68.3196 37.2022 67.9999C37.201 67.8168 37.201 67.8168 37.1999 67.629C37.1987 67.2154 37.2022 66.803 37.2046 66.3906C37.2046 66.0958 37.2034 65.7999 37.2034 65.5051C37.2022 64.8681 37.2022 64.2322 37.2046 63.5952C37.2082 62.6741 37.2082 61.7529 37.2058 60.8318C37.2034 59.3355 37.2034 57.8403 37.2058 56.3451C37.2058 56.256 37.2058 56.1657 37.2058 56.0742C37.207 55.7105 37.207 55.348 37.207 54.9855C37.2082 53.9871 37.2094 52.9899 37.2105 51.9916C37.2105 51.8573 37.2105 51.8573 37.2105 51.7206C37.2117 50.2314 37.2105 48.7421 37.2094 47.2529C37.2082 46.3342 37.2082 45.4154 37.2117 44.4955C37.2129 43.7919 37.2129 43.0883 37.2117 42.3835C37.2117 42.0947 37.2129 41.8059 37.2141 41.5171C37.2165 41.1225 37.2153 40.7291 37.2141 40.3345C37.2165 40.1633 37.2165 40.1633 37.2177 39.9874C37.2117 39.304 37.1345 38.9178 36.6809 38.3972C36.4505 38.2938 36.4505 38.2938 36.1988 38.308C36.1049 38.3069 36.0123 38.3057 35.9149 38.3045C35.8152 38.3057 35.7154 38.308 35.6121 38.3104C35.5088 38.3104 35.4055 38.3104 35.2986 38.3104C35.0801 38.3104 34.8604 38.3128 34.6419 38.3176C34.307 38.3223 33.9733 38.3223 33.6384 38.3199C33.4258 38.3223 33.2133 38.3235 32.9995 38.3259C32.8998 38.3259 32.8 38.3247 32.6967 38.3247C32.249 38.3354 32.0055 38.3437 31.6338 38.6099C31.3655 39.0057 31.3227 39.3646 31.3215 39.8365C31.3203 39.9339 31.3191 40.0314 31.3191 40.1312C31.3191 40.237 31.3191 40.3428 31.3191 40.4521C31.318 40.5651 31.318 40.678 31.3168 40.7944C31.3156 41.1736 31.3144 41.5539 31.3132 41.9331C31.312 42.2052 31.3108 42.4762 31.3096 42.7484C31.3061 43.4865 31.3037 44.2257 31.3013 44.9638C31.299 45.7352 31.2954 46.5065 31.2918 47.2791C31.2871 48.5734 31.2823 49.8689 31.2776 51.1644C31.2728 52.4991 31.2681 53.8326 31.2633 55.1673C31.2621 55.2493 31.2621 55.3313 31.2621 55.4157C31.2598 55.8293 31.2586 56.2417 31.2574 56.6542C31.2431 60.0759 31.2313 63.4989 31.2182 66.9219C31.0472 66.828 30.875 66.7329 30.704 66.6378C30.5603 66.5594 30.5603 66.5594 30.4142 66.4785C29.6922 66.0661 29.0509 65.5099 28.4869 64.9014C28.3942 64.8051 28.3942 64.8051 28.3004 64.7076C26.43 62.6919 25.746 60.5609 25.7769 57.8807C25.7769 57.6216 25.7757 57.3625 25.7745 57.1046C25.7733 56.4081 25.7781 55.7117 25.7828 55.0152C25.7864 54.2842 25.7864 53.5545 25.7876 52.8235C25.7888 51.5994 25.7923 50.3752 25.7994 49.151C25.8078 47.5786 25.8101 46.005 25.8125 44.4325C25.8137 43.08 25.8173 41.7262 25.8208 40.3737C25.822 39.9387 25.8232 39.5037 25.8244 39.0687C25.8256 38.3865 25.8291 37.7055 25.8327 37.0244C25.8339 36.7737 25.8351 36.5229 25.8351 36.2721C25.8363 35.931 25.8386 35.5911 25.841 35.25C25.841 35.1501 25.8398 35.0491 25.8398 34.9469C25.8505 34.0222 25.8505 34.0222 26.4478 33.9699Z" fill="#81AC3F"/>
<path d="M41.6367 16.4954C41.8374 16.4954 42.0381 16.4942 42.2376 16.493C42.7804 16.4918 43.3219 16.4918 43.8646 16.4918C44.3182 16.4918 44.7707 16.4918 45.2243 16.4907C46.2955 16.4895 47.3655 16.4895 48.4366 16.4907C49.5387 16.4918 50.6407 16.4895 51.7427 16.4871C52.6916 16.4847 53.6392 16.4847 54.5881 16.4847C55.1534 16.4847 55.7186 16.4847 56.2851 16.4835C56.8171 16.4811 57.3479 16.4823 57.88 16.4835C58.0747 16.4835 58.2695 16.4835 58.4642 16.4823C59.9297 16.4752 61.2383 16.5014 62.3392 17.5758C63.275 18.6288 63.4365 19.62 63.4507 20.9987C63.4543 21.2151 63.4543 21.2151 63.4567 21.4361C63.4638 21.8949 63.4697 22.3537 63.4757 22.8124C63.4804 23.1238 63.484 23.4352 63.4887 23.7478C63.5006 24.5108 63.5113 25.2739 63.5196 26.0357C63.6277 26.0369 63.6277 26.0369 63.7369 26.0381C65.4743 26.05 67.2117 26.0631 68.9479 26.0761C69.7886 26.0833 70.6282 26.0892 71.469 26.0952C72.2789 26.1011 73.0888 26.107 73.8987 26.1142C74.2087 26.1165 74.5186 26.1189 74.8286 26.1201C75.2608 26.1237 75.6931 26.1272 76.1254 26.1308C76.2548 26.132 76.3843 26.132 76.5173 26.1332C76.693 26.1344 76.693 26.1344 76.8723 26.1368C76.9745 26.1368 77.0766 26.1379 77.1823 26.1391C77.4139 26.1546 77.4139 26.1546 77.5326 26.2734C77.5433 26.4351 77.5469 26.5955 77.5469 26.7572C77.5469 26.8594 77.5469 26.9616 77.5469 27.0662C77.5457 27.1779 77.5445 27.2884 77.5445 27.4037C77.5445 27.5737 77.5445 27.5737 77.5445 27.7472C77.5433 28.1097 77.5421 28.4734 77.5397 28.8371C77.5397 29.0819 77.5385 29.3279 77.5385 29.574C77.5374 30.1777 77.535 30.7815 77.5326 31.3841C77.174 31.5648 76.8035 31.5196 76.4092 31.5184C76.3166 31.5184 76.2239 31.5184 76.1277 31.5184C75.813 31.5184 75.4983 31.5184 75.1836 31.5172C74.9568 31.5184 74.7312 31.5184 74.5044 31.5184C73.8797 31.5184 73.2539 31.5184 72.6292 31.5172C71.9559 31.5172 71.2838 31.5172 70.6104 31.5172C69.4431 31.5172 68.2769 31.5172 67.1095 31.516C65.422 31.5148 63.7357 31.5148 62.0482 31.5148C59.3109 31.5148 56.5737 31.5136 53.8364 31.5125C51.1775 31.5113 48.5174 31.5101 45.8585 31.5101C45.735 31.5101 45.735 31.5101 45.6103 31.5101C44.7873 31.5101 43.9643 31.5101 43.1414 31.5101C36.2382 31.5077 29.335 31.5065 22.4306 31.503C22.2275 31.0977 22.2929 30.6318 22.2917 30.1849C22.2917 30.0779 22.2917 29.9709 22.2905 29.8604C22.2905 29.6334 22.2905 29.4064 22.2905 29.1794C22.2893 28.8311 22.2881 28.4829 22.2857 28.1347C22.2845 27.9136 22.2845 27.6937 22.2845 27.4738C22.2834 27.3693 22.2834 27.2647 22.2822 27.1565C22.2845 26.4196 22.2845 26.4196 22.5494 26.1546C22.7916 26.1261 22.7916 26.1261 23.0968 26.1261C23.269 26.1261 23.269 26.1261 23.446 26.1261C23.636 26.1272 23.636 26.1272 23.8307 26.1284C23.9637 26.1284 24.0967 26.1284 24.2345 26.1284C24.6763 26.1284 25.118 26.1296 25.5598 26.132C25.8662 26.132 26.1714 26.1332 26.4778 26.1332C27.2022 26.1332 27.9254 26.1356 28.6498 26.1379C29.4727 26.1403 30.2969 26.1415 31.1211 26.1427C32.8157 26.1451 34.5115 26.1498 36.2061 26.1546C36.2049 26.0809 36.2037 26.0072 36.2037 25.9311C36.1931 25.1538 36.1859 24.3765 36.18 23.5992C36.1776 23.3104 36.1752 23.0216 36.1705 22.7316C36.1182 18.9462 36.1182 18.9462 37.1775 17.6827C38.4613 16.474 39.9837 16.493 41.6367 16.4954Z" fill="#81AC3F"/>
<path d="M68.5075 70.1307C68.6963 70.6988 68.4351 71.1552 68.2403 71.7055C68.1976 71.8267 68.1548 71.9479 68.1109 72.0727C67.1133 74.8206 65.7013 77.3569 63.8761 79.6389C63.787 79.7518 63.6991 79.8647 63.6077 79.9812C61.9962 81.9625 60.1519 83.7631 58.0571 85.225C57.9823 85.2773 57.9087 85.3308 57.8315 85.3842C54.3306 87.8588 50.2502 89.5572 46.0629 90.4545C50.0115 92.3573 53.9482 93.6338 58.2946 94.2578C57.8636 94.5193 57.4527 94.5609 56.9563 94.6191C56.8708 94.6286 56.7865 94.6381 56.6998 94.6488C56.4254 94.6809 56.1499 94.7106 55.8744 94.7403C55.7343 94.7558 55.7343 94.7558 55.5918 94.7724C52.8201 95.0814 50.065 95.1718 47.2802 95.0006C47.1959 94.9959 47.1127 94.9899 47.026 94.9852C41.2 94.6203 35.8335 92.9789 30.5061 90.6922C30.7436 90.4545 30.7436 90.4545 31.1379 90.4402C31.3054 90.4438 31.474 90.4486 31.6414 90.4545C34.0438 90.4878 36.4153 89.9862 38.7002 89.266C38.7002 89.1483 38.7002 89.0306 38.7002 88.9094C38.5577 88.8714 38.5577 88.8714 38.4116 88.8322C37.8594 88.623 37.3927 88.3282 36.8963 88.0109C36.7965 87.9467 36.6956 87.8825 36.5923 87.8172C35.8216 87.318 35.1126 86.7867 34.425 86.1758C34.3336 86.0974 34.2433 86.0201 34.1495 85.9393C32.601 84.5832 31.1581 83.151 30.0311 81.4217C29.9801 81.3432 29.929 81.266 29.8767 81.1852C28.4719 79.0078 27.1288 76.0983 27.181 73.4586C27.3663 73.8234 27.5397 74.1919 27.7118 74.5639C29.0122 77.345 30.5287 79.6757 32.6437 81.8971C32.7304 81.9898 32.8159 82.0825 32.905 82.1776C34.8858 84.2444 37.477 85.824 40.0065 87.1266C40.0955 87.1742 40.1858 87.2217 40.2784 87.2704C41.5455 87.9372 42.4849 88.2367 43.9254 87.9586C44.0429 87.9384 44.1605 87.9182 44.2804 87.898C50.4141 86.8449 56.1701 84.109 60.7612 79.8825C61.0082 79.6555 61.2611 79.4345 61.5153 79.2158C62.3275 78.505 63.065 77.7313 63.7573 76.9053C63.812 76.8399 63.8666 76.7757 63.9236 76.708C65.4852 74.8444 67.0611 72.7894 68.1512 70.6061C68.2296 70.6061 68.308 70.6061 68.3887 70.6061C68.4279 70.4492 68.4671 70.2923 68.5075 70.1307Z" fill="#FAFCFC"/>
<path d="M40.5758 19.691C40.6578 19.6898 40.7409 19.6898 40.8264 19.6886C41.1031 19.6874 41.3798 19.6886 41.6565 19.6886C41.8548 19.6886 42.0532 19.6874 42.2527 19.6863C42.7918 19.6839 43.3309 19.6851 43.8701 19.6851C44.3202 19.6851 44.7691 19.6851 45.2191 19.6839C46.2796 19.6827 47.3413 19.6827 48.4018 19.6839C49.4967 19.6851 50.5928 19.6839 51.6877 19.6803C52.627 19.6779 53.5676 19.6767 54.5069 19.6779C55.0686 19.6779 55.6303 19.6779 56.192 19.6756C56.7193 19.6744 57.2478 19.6744 57.775 19.6767C57.9698 19.6767 58.1634 19.6767 58.3569 19.6756C58.6217 19.6744 58.8866 19.6756 59.1502 19.6779C59.3723 19.6779 59.3723 19.6779 59.5991 19.6779C59.9577 19.7374 59.9577 19.7374 60.1834 19.9406C60.3342 20.2567 60.3568 20.4624 60.3544 20.8118C60.3544 20.9306 60.3544 21.0495 60.3544 21.1719C60.352 21.3003 60.3496 21.4274 60.3484 21.5594C60.3472 21.6901 60.3472 21.8208 60.3472 21.9563C60.3449 22.3759 60.3401 22.7943 60.3354 23.2138C60.3342 23.4979 60.3318 23.7819 60.3306 24.066C60.3271 24.7625 60.3211 25.4589 60.314 26.1554C57.6064 26.1578 54.8988 26.1602 52.1912 26.1614C50.9336 26.1614 49.676 26.1625 48.4196 26.1637C47.3247 26.1649 46.2286 26.1661 45.1336 26.1661C44.5529 26.1661 43.9734 26.1673 43.3927 26.1673C42.8476 26.1685 42.3013 26.1685 41.7563 26.1685C41.5556 26.1685 41.3549 26.1685 41.1542 26.1697C40.881 26.1697 40.6079 26.1697 40.3348 26.1697C40.1816 26.1697 40.0284 26.1697 39.8704 26.1697C39.532 26.1554 39.532 26.1554 39.4132 26.0366C39.4002 25.8523 39.3954 25.6669 39.3931 25.4827C39.3919 25.365 39.3919 25.2474 39.3907 25.1261C39.3895 24.9978 39.3895 24.8694 39.3883 24.7375C39.3883 24.6068 39.3871 24.476 39.3871 24.3405C39.3859 24.0636 39.3847 23.7855 39.3847 23.5074C39.3836 23.0819 39.3788 22.6576 39.3752 22.2321C39.3752 21.9623 39.3741 21.6937 39.3741 21.4239C39.3729 21.2967 39.3705 21.1683 39.3693 21.0376C39.3693 20.9188 39.3705 20.7999 39.3705 20.6775C39.3705 20.5729 39.3693 20.4695 39.3693 20.3613C39.4809 19.6732 39.969 19.6922 40.5758 19.691Z" fill="#FBFDFD"/>
</svg>
