<svg width="45" height="45" viewBox="0 0 45 45" fill="none" xmlns="http://www.w3.org/2000/svg">
<path d="M25.6448 0.217321C25.7361 0.230157 25.7361 0.230157 25.8291 0.242993C29.3123 0.750554 32.7378 2.09353 35.5845 4.17512C35.6401 4.21523 35.6951 4.25588 35.7523 4.2976C35.9115 4.41526 36.0686 4.5356 36.2258 4.65647C36.2701 4.69017 36.2701 4.69017 36.3155 4.72493C36.7137 5.02925 37.0942 5.34481 37.4597 5.68871C37.5772 5.79782 37.6959 5.90318 37.8177 6.00801C38.0646 6.22355 38.296 6.45299 38.5269 6.68565C38.5883 6.74662 38.5883 6.74662 38.6508 6.80866C38.9041 7.06324 39.1462 7.32424 39.3787 7.59808C39.422 7.64889 39.422 7.64889 39.4658 7.70023C40.564 8.99935 41.4821 10.3969 42.3179 11.8768C42.3526 11.9383 42.3526 11.9383 42.3879 12.0003C44.1653 15.1666 45.0048 18.9013 45 22.5168C45 22.581 45 22.581 45 22.6463C44.9984 23.4106 44.9631 24.1663 44.8829 24.9268C44.8776 24.9792 44.8728 25.0311 44.8674 25.0851C44.6163 27.5775 43.9077 30.1222 42.7528 32.3504C42.6871 32.4777 42.6219 32.606 42.5567 32.7338C41.7653 34.2785 40.8119 35.684 39.6993 37.0142C39.6774 37.0409 39.655 37.0676 39.632 37.0949C39.2429 37.5624 38.8341 38.0041 38.4029 38.4325C38.3062 38.5288 38.21 38.6256 38.1138 38.7224C37.7504 39.0866 37.3779 39.422 36.9739 39.7418C36.9125 39.7937 36.8515 39.8461 36.7906 39.8985C36.3882 40.2483 35.9709 40.5639 35.531 40.865C35.4904 40.8928 35.4493 40.9211 35.4076 40.95C34.3746 41.6581 33.3144 42.2919 32.1857 42.8353C32.0751 42.8888 31.9645 42.9434 31.8544 42.9985C30.0161 43.8922 28.0084 44.4398 25.9953 44.7591C25.9307 44.7698 25.8655 44.78 25.7981 44.7907C24.7256 44.9522 23.6557 45.0036 22.572 44.9998C22.4811 44.9998 22.4811 44.9998 22.3887 44.9998C21.4161 44.9971 20.4627 44.9618 19.4992 44.8228C19.4362 44.8137 19.3731 44.8051 19.3084 44.796C16.9972 44.4586 14.6875 43.7788 12.6157 42.6909C12.4799 42.6203 12.3437 42.5508 12.2069 42.4813C10.4664 41.5913 8.83805 40.4858 7.39252 39.1658C7.30808 39.0888 7.22311 39.0128 7.13761 38.9374C6.57543 38.4416 6.03248 37.9111 5.55153 37.3351C5.51038 37.288 5.46923 37.2409 5.42701 37.1928C3.70466 35.2118 2.3302 32.8515 1.43669 30.3822C1.41264 30.3158 1.3886 30.2501 1.36401 30.1821C0.761218 28.5049 0.376453 26.8014 0.154145 25.0338C0.143458 24.953 0.143458 24.953 0.13277 24.8712C-0.0820566 23.1549 -0.0211359 21.3434 0.207585 19.6319C0.216135 19.5667 0.224685 19.502 0.23377 19.4351C0.74091 15.7586 2.17309 12.0645 4.46617 9.13253C4.57252 8.99508 4.67405 8.85441 4.77666 8.71482C5.05347 8.34525 5.35327 7.99707 5.65841 7.65156C5.69261 7.61252 5.72681 7.57348 5.76208 7.53336C6.06829 7.18786 6.38786 6.85786 6.71437 6.53161C6.80041 6.44497 6.88644 6.35833 6.97248 6.27115C7.3193 5.9219 7.67735 5.60421 8.06318 5.29828C8.16151 5.21484 8.2593 5.13141 8.3571 5.04744C11.0173 2.82947 14.3028 1.27363 17.6823 0.538223C17.7346 0.526457 17.7876 0.51469 17.8415 0.502924C20.3938 -0.0559814 23.0583 -0.145834 25.6448 0.217321Z" fill="#FAFCFC"/>
<path d="M25.6448 0.217321C25.7361 0.230157 25.7361 0.230157 25.8291 0.242993C29.3123 0.750554 32.7378 2.09353 35.5845 4.17512C35.6401 4.21523 35.6951 4.25588 35.7523 4.2976C35.9115 4.41526 36.0686 4.5356 36.2258 4.65647C36.2701 4.69017 36.2701 4.69017 36.3155 4.72493C36.7137 5.02925 37.0942 5.34481 37.4597 5.68871C37.5772 5.79782 37.6959 5.90318 37.8177 6.00801C38.0646 6.22355 38.296 6.45299 38.5269 6.68565C38.5883 6.74662 38.5883 6.74662 38.6508 6.80866C38.9041 7.06324 39.1462 7.32424 39.3787 7.59808C39.422 7.64889 39.422 7.64889 39.4658 7.70023C40.564 8.99935 41.4821 10.3969 42.3179 11.8768C42.3526 11.9383 42.3526 11.9383 42.3879 12.0003C44.1653 15.1666 45.0048 18.9013 45 22.5168C45 22.581 45 22.581 45 22.6463C44.9984 23.4106 44.9631 24.1663 44.8829 24.9268C44.8776 24.9792 44.8728 25.0311 44.8675 25.0851C44.6163 27.5775 43.9077 30.1222 42.7529 32.3504C42.6871 32.4777 42.6219 32.606 42.5567 32.7338C41.7653 34.2785 40.8119 35.684 39.6993 37.0142C39.6774 37.0409 39.655 37.0676 39.632 37.0949C39.243 37.5624 38.8341 38.0041 38.4029 38.4325C38.3062 38.5288 38.21 38.6256 38.1138 38.7224C37.7504 39.0866 37.3779 39.422 36.9739 39.7418C36.9125 39.7937 36.8515 39.8461 36.7906 39.8985C36.3882 40.2483 35.9709 40.5639 35.531 40.865C35.4904 40.8928 35.4493 40.9211 35.4076 40.95C34.3746 41.6581 33.3144 42.2919 32.1857 42.8353C32.0751 42.8888 31.9645 42.9434 31.8544 42.9985C30.0161 43.8922 28.0084 44.4398 25.9953 44.7591C25.9307 44.7698 25.8655 44.78 25.7981 44.7907C24.7256 44.9522 23.6557 45.0036 22.572 44.9998C22.4811 44.9998 22.4811 44.9998 22.3887 44.9998C21.4161 44.9971 20.4627 44.9618 19.4992 44.8228C19.4362 44.8137 19.3731 44.8051 19.3084 44.796C16.9972 44.4586 14.6875 43.7788 12.6157 42.6909C12.48 42.6203 12.3437 42.5508 12.2069 42.4813C10.4664 41.5913 8.83805 40.4858 7.39252 39.1658C7.30808 39.0888 7.22311 39.0128 7.13761 38.9374C6.57543 38.4416 6.03248 37.9111 5.55153 37.3351C5.51038 37.288 5.46923 37.2409 5.42701 37.1928C3.70466 35.2118 2.3302 32.8515 1.43669 30.3822C1.41264 30.3158 1.3886 30.2501 1.36401 30.1821C0.761218 28.5049 0.376453 26.8014 0.154145 25.0338C0.143458 24.953 0.143458 24.953 0.13277 24.8712C-0.0820566 23.1549 -0.0211359 21.3434 0.207585 19.6319C0.216135 19.5667 0.224685 19.502 0.23377 19.4351C0.74091 15.7586 2.17309 12.0645 4.46617 9.13253C4.57252 8.99508 4.67405 8.85441 4.77666 8.71482C5.05347 8.34525 5.35327 7.99707 5.65841 7.65156C5.69261 7.61252 5.72681 7.57348 5.76208 7.53336C6.06829 7.18786 6.38786 6.85786 6.71437 6.53161C6.80041 6.44497 6.88645 6.35833 6.97248 6.27115C7.3193 5.9219 7.67735 5.60421 8.06318 5.29828C8.16151 5.21484 8.2593 5.13141 8.3571 5.04744C11.0173 2.82947 14.3028 1.27363 17.6823 0.538223C17.7346 0.526457 17.7876 0.51469 17.8415 0.502924C20.3938 -0.0559814 23.0583 -0.145834 25.6448 0.217321ZM11.0558 5.77963C11.0253 5.80049 10.9949 5.82188 10.9633 5.84328C10.2889 6.30752 9.64873 6.81882 9.047 7.37345C8.93905 7.47186 8.8295 7.56759 8.71942 7.6628C8.47413 7.87673 8.24274 8.1035 8.01295 8.33348C7.97073 8.37573 7.92851 8.41799 7.88469 8.46184C7.62177 8.72766 7.37649 8.99668 7.1467 9.29138C7.05264 9.41011 6.95378 9.51975 6.85064 9.63046C5.78987 10.8146 4.94766 12.2635 4.26898 13.6952C4.23799 13.7594 4.23799 13.7594 4.20646 13.8252C3.04575 16.2566 2.29172 19.0206 2.28103 21.7264C2.2805 21.7873 2.2805 21.8483 2.27997 21.9109C2.27943 22.0398 2.2789 22.1687 2.2789 22.2981C2.27836 22.4896 2.27676 22.6816 2.27516 22.8736C2.2618 25.8018 2.96559 28.776 4.26898 31.3984C4.29624 31.4534 4.32349 31.5085 4.35128 31.5658C4.73765 32.3472 5.16409 33.0868 5.65841 33.8051C5.68192 33.8394 5.70543 33.8741 5.72948 33.9094C6.18799 34.5812 6.70048 35.2176 7.2509 35.8156C7.34763 35.922 7.44168 36.0295 7.5352 36.1386C7.77514 36.4141 8.03219 36.6719 8.2903 36.9307C8.33733 36.9783 8.38435 37.0259 8.43245 37.0746C8.79851 37.442 9.18595 37.772 9.59689 38.0876C9.7198 38.1908 9.7198 38.1908 9.82668 38.3512C9.86195 38.3336 9.89722 38.3159 9.93356 38.2978C9.91753 38.2705 9.90096 38.2427 9.8844 38.2149C8.78782 36.2087 9.22442 33.5334 9.82668 31.4518C10.1938 30.2233 10.6796 29.059 11.2695 27.9219C11.4208 28.0535 11.4876 28.1915 11.5699 28.3733C12.2037 29.6628 13.3895 30.5774 14.7298 31.0395C15.0328 31.1406 15.3363 31.2395 15.6414 31.3336C16.7364 31.6775 17.5113 32.1696 18.0585 33.2072C18.6362 34.3426 18.7789 35.6 18.9114 36.8537C18.929 36.8537 18.9467 36.8537 18.9648 36.8537C18.9691 36.8163 18.9739 36.7788 18.9787 36.7398C19.2774 34.3207 19.9294 31.7348 21.8906 30.1147C23.621 28.8012 25.796 28.576 27.8844 28.3546C29.7227 28.1695 29.7227 28.1695 31.4697 27.601C31.5247 27.5759 31.5792 27.5513 31.6359 27.5256C32.586 27.0335 33.1845 26.1634 33.5041 25.168C33.6398 24.7268 33.7312 24.3209 33.7141 23.8571C33.7494 23.8571 33.7846 23.8571 33.821 23.8571C33.8424 23.924 33.8637 23.9903 33.8857 24.0593C33.9679 24.3075 34.0641 24.5487 34.1635 24.791C35.6828 28.4937 36.291 32.6718 34.9967 36.5328C34.9849 36.5692 34.9737 36.605 34.9614 36.6424C34.6669 37.5549 34.1828 38.4085 33.6051 39.1706C33.5185 39.2888 33.4549 39.3963 33.3935 39.5279C33.3582 39.5808 33.3229 39.6338 33.2866 39.6883C34.9288 38.9471 36.5678 37.2992 37.7221 35.9445C37.7675 35.8931 37.8129 35.8418 37.8594 35.7888C39.585 33.8271 40.8937 31.5176 41.73 29.0451C41.7477 28.9937 41.7648 28.9418 41.7829 28.8889C42.2532 27.4791 42.538 26.0286 42.6919 24.5524C42.6973 24.5006 42.7032 24.4492 42.7085 24.3957C42.7635 23.7988 42.7582 23.1993 42.7587 22.6003C42.7587 22.542 42.7587 22.4837 42.7587 22.4238C42.7582 21.4996 42.7197 20.6005 42.5851 19.6854C42.5744 19.6063 42.5744 19.6063 42.5631 19.525C42.041 15.6902 40.2994 11.9629 37.6793 9.11755C37.6141 9.04589 37.5495 8.97422 37.4869 8.90094C37.2197 8.5886 36.9338 8.29711 36.6437 8.0067C36.5603 7.92273 36.4775 7.83876 36.3946 7.75479C36.0526 7.41089 35.6972 7.09747 35.3173 6.79582C35.2617 6.74929 35.2067 6.70223 35.1516 6.65463C32.2782 4.18368 28.5128 2.79952 24.7897 2.35667C24.7374 2.35025 24.685 2.34384 24.631 2.33742C19.9289 1.79188 14.9344 3.07121 11.0558 5.77963Z" fill="#006938"/>
<path d="M11.9015 15.2865C11.9667 15.2865 12.0319 15.2865 12.0993 15.2865C12.1538 15.2865 12.1538 15.2865 12.2093 15.2865C12.3328 15.2859 12.4557 15.2865 12.5791 15.287C12.6679 15.287 12.7566 15.287 12.8453 15.2865C13.0895 15.2865 13.3342 15.287 13.579 15.2875C13.8425 15.2875 14.1059 15.2875 14.3699 15.2875C14.8268 15.2875 15.2832 15.2881 15.7401 15.2886C16.4011 15.2891 17.0616 15.2897 17.7222 15.2897C18.7936 15.2902 19.8651 15.2907 20.9371 15.2918C21.9781 15.2929 23.0196 15.2934 24.0606 15.2939C24.1568 15.2939 24.1568 15.2939 24.2551 15.2939C24.5768 15.2939 24.8985 15.2945 25.2202 15.2945C27.8911 15.2955 30.562 15.2972 33.233 15.2998C33.304 15.441 33.2939 15.5469 33.2939 15.7052C33.2944 15.7689 33.2949 15.8325 33.2949 15.8978C33.2949 15.9678 33.2949 16.0379 33.2955 16.1106C33.2955 16.185 33.2955 16.2588 33.296 16.3331C33.2965 16.5358 33.2971 16.7385 33.2971 16.9412C33.2976 17.0685 33.2976 17.1953 33.2981 17.3226C33.2987 17.7216 33.2992 18.1206 33.2992 18.5196C33.2997 18.9774 33.3003 19.4352 33.3019 19.893C33.3035 20.2487 33.304 20.6038 33.304 20.9589C33.304 21.1702 33.304 21.382 33.3051 21.5933C33.3206 25.22 33.3206 25.22 32.1241 26.4699C31.8328 26.748 31.3588 27.1732 30.9351 27.1732C30.856 27.0149 30.8752 26.8726 30.8747 26.6961C30.8747 26.6384 30.8747 26.6384 30.8747 26.5796C30.8741 26.4496 30.8741 26.3196 30.8741 26.1902C30.8741 26.0971 30.8741 26.0046 30.8736 25.9121C30.8731 25.7115 30.8731 25.5115 30.8731 25.3115C30.8725 24.9948 30.8715 24.6787 30.8704 24.3621C30.8704 24.2541 30.8699 24.1455 30.8693 24.0375C30.8693 23.9835 30.8693 23.9289 30.8693 23.8733C30.8667 23.1363 30.865 22.3993 30.8645 21.6623C30.864 21.1659 30.8629 20.6691 30.8608 20.1722C30.8597 19.9091 30.8592 19.6465 30.8592 19.3833C30.8597 19.1362 30.8586 18.8886 30.857 18.641C30.857 18.5506 30.857 18.4596 30.857 18.3687C30.8576 18.2446 30.857 18.1211 30.856 17.997C30.8554 17.9275 30.8554 17.858 30.8554 17.7868C30.8239 17.567 30.7534 17.4499 30.6144 17.2787C30.5107 17.2322 30.5107 17.2322 30.3975 17.2386C30.3552 17.2381 30.3136 17.2375 30.2697 17.237C30.2248 17.2375 30.18 17.2386 30.1335 17.2397C30.087 17.2397 30.0405 17.2397 29.9924 17.2397C29.8941 17.2397 29.7952 17.2408 29.6969 17.2429C29.5462 17.245 29.396 17.245 29.2453 17.244C29.1496 17.245 29.054 17.2456 28.9578 17.2466C28.9129 17.2466 28.868 17.2461 28.8215 17.2461C28.5645 17.2525 28.5645 17.2525 28.3432 17.3777C28.192 17.5948 28.2016 17.8018 28.2016 18.0558C28.2011 18.1184 28.2011 18.1184 28.2006 18.1815C28.2 18.3206 28.1995 18.4602 28.199 18.5992C28.1984 18.6987 28.1979 18.7982 28.1974 18.8982C28.1957 19.1688 28.1947 19.4395 28.1936 19.7106C28.1925 19.9936 28.1909 20.2765 28.1893 20.5589C28.1867 21.0948 28.1845 21.6307 28.1824 22.1666C28.1797 22.7769 28.1765 23.3866 28.1738 23.9968C28.1674 25.2516 28.1621 26.5063 28.1562 27.7615C27.2039 27.8674 27.2039 27.8674 26.2324 27.9755C26.1512 27.8129 26.1715 27.6439 26.172 27.4652C26.172 27.4027 26.172 27.4027 26.172 27.338C26.1715 27.1962 26.1715 27.0545 26.1715 26.9128C26.1715 26.8117 26.1715 26.7106 26.1709 26.609C26.1704 26.3908 26.1704 26.172 26.1704 25.9538C26.1699 25.6083 26.1688 25.2628 26.1677 24.9173C26.1677 24.7991 26.1672 24.6814 26.1667 24.5632C26.1667 24.4744 26.1667 24.4744 26.1667 24.3835C26.164 23.5791 26.1624 22.7747 26.1618 21.9703C26.1613 21.4285 26.1602 20.8862 26.1581 20.3439C26.157 20.0567 26.1565 19.77 26.1565 19.4828C26.157 19.2127 26.156 18.9426 26.1544 18.6725C26.1544 18.5736 26.1544 18.4741 26.1544 18.3751C26.1549 18.2398 26.1544 18.1045 26.1533 17.9692C26.1533 17.9302 26.1538 17.8906 26.1544 17.8505C26.1506 17.5927 26.0961 17.459 25.9117 17.2787C25.807 17.2397 25.807 17.2397 25.6948 17.245C25.6526 17.244 25.6109 17.2434 25.5671 17.2429C25.5222 17.2434 25.4773 17.2445 25.4308 17.245C25.3843 17.245 25.3378 17.2445 25.2897 17.2445C25.1914 17.2445 25.0925 17.2456 24.9942 17.2466C24.8435 17.2488 24.6933 17.2477 24.5426 17.2466C24.447 17.2472 24.3513 17.2477 24.2551 17.2482C24.2102 17.2482 24.1653 17.2477 24.1189 17.2477C23.8618 17.2525 23.8618 17.2525 23.6406 17.3777C23.4835 17.6034 23.499 17.8243 23.499 18.0885C23.4984 18.1334 23.4984 18.1783 23.4979 18.2249C23.4974 18.3757 23.4968 18.5265 23.4963 18.6779C23.4958 18.7859 23.4952 18.8939 23.4947 19.002C23.4931 19.2956 23.492 19.5892 23.4909 19.8834C23.4899 20.1904 23.4883 20.4968 23.4867 20.8038C23.484 21.3852 23.4819 21.9666 23.4797 22.5479C23.477 23.2095 23.4738 23.8711 23.4712 24.5327C23.4648 25.8944 23.4594 27.2556 23.4535 28.6173C23.422 28.6317 23.3905 28.6467 23.3579 28.6617C23.212 28.7291 23.0661 28.7975 22.9202 28.866C22.8705 28.889 22.8208 28.912 22.7695 28.9355C22.3361 29.1398 21.9583 29.3901 21.5832 29.687C21.4426 29.5463 21.4635 29.4457 21.4624 29.2543C21.4624 29.2077 21.4629 29.1618 21.4629 29.1142C21.4629 29.0655 21.4629 29.0168 21.4624 28.9665C21.4624 28.8018 21.4624 28.6376 21.4629 28.4729C21.4629 28.3557 21.4624 28.2381 21.4624 28.1204C21.4618 27.8669 21.4618 27.6134 21.4618 27.3599C21.4618 26.9588 21.4613 26.5582 21.4602 26.157C21.4592 25.5949 21.4581 25.0328 21.4576 24.4707C21.457 24.4354 21.457 24.3996 21.457 24.3627C21.4565 23.8567 21.4565 23.3507 21.456 22.8442C21.456 22.8089 21.456 22.7731 21.456 22.7362C21.456 22.7009 21.456 22.6651 21.456 22.6287C21.456 22.035 21.4549 21.4419 21.4533 20.8482C21.4522 20.4498 21.4522 20.0513 21.4528 19.6529C21.4528 19.4047 21.4517 19.1565 21.4512 18.9084C21.4506 18.7934 21.4506 18.6784 21.4512 18.5634C21.4517 18.4062 21.4512 18.2495 21.4501 18.0922C21.4506 18.0468 21.4512 18.0008 21.4517 17.9542C21.448 17.6617 21.3993 17.5034 21.2091 17.2787C21.1054 17.2322 21.1054 17.2322 20.9921 17.2386C20.9499 17.2381 20.9082 17.2375 20.8644 17.237C20.8195 17.2375 20.7746 17.2386 20.7281 17.2397C20.6816 17.2397 20.6351 17.2397 20.587 17.2397C20.4887 17.2397 20.3899 17.2408 20.2915 17.2429C20.1408 17.245 19.9907 17.245 19.84 17.244C19.7443 17.245 19.6486 17.2456 19.5525 17.2466C19.5076 17.2466 19.4627 17.2461 19.4162 17.2461C19.1591 17.2525 19.1591 17.2525 18.9379 17.3777C18.8129 17.5574 18.7979 17.7012 18.7974 17.9141C18.7968 17.9681 18.7963 18.0227 18.7963 18.0783C18.7963 18.1382 18.7963 18.1976 18.7963 18.2591C18.7958 18.3222 18.7958 18.3858 18.7952 18.4506C18.7947 18.6265 18.7942 18.8025 18.7936 18.9784C18.7936 19.1678 18.7925 19.3576 18.792 19.547C18.7909 19.8754 18.7899 20.2043 18.7888 20.5327C18.7877 21.0076 18.7861 21.4826 18.7845 21.9575C18.7824 22.7277 18.7797 23.4984 18.7776 24.2691C18.7754 25.0178 18.7733 25.7661 18.7712 26.5148C18.7706 26.5838 18.7706 26.5838 18.7706 26.6544C18.7696 26.886 18.769 27.1176 18.7685 27.3486C18.7621 29.2693 18.7567 31.1893 18.7509 33.1099C18.5366 33.0383 18.5008 32.9088 18.4035 32.719C18.0749 32.1141 17.565 31.4862 16.9019 31.2396C16.7736 31.131 16.7736 31.131 16.749 31.0278C16.7394 30.8845 16.7389 30.7438 16.741 30.5999C16.7405 30.5176 16.7405 30.5176 16.7399 30.4331C16.7394 30.2469 16.741 30.0613 16.7421 29.8758C16.7421 29.7431 16.7415 29.6099 16.7415 29.4773C16.741 29.1906 16.741 28.9045 16.7421 28.6178C16.7437 28.2033 16.7437 27.7888 16.7426 27.3743C16.7415 26.701 16.7415 26.0281 16.7426 25.3553C16.7426 25.3152 16.7426 25.2745 16.7426 25.2334C16.7431 25.0697 16.7431 24.9066 16.7431 24.7435C16.7437 24.2942 16.7442 23.8455 16.7447 23.3962C16.7447 23.3358 16.7447 23.3358 16.7447 23.2743C16.7453 22.6041 16.7447 21.934 16.7442 21.2638C16.7437 20.8504 16.7437 20.4369 16.7453 20.023C16.7458 19.7064 16.7458 19.3897 16.7453 19.0726C16.7453 18.9426 16.7458 18.8126 16.7464 18.6827C16.7474 18.5051 16.7469 18.3281 16.7464 18.1505C16.7474 18.0735 16.7474 18.0735 16.748 17.9943C16.7453 17.6868 16.7105 17.513 16.5064 17.2787C16.4027 17.2322 16.4027 17.2322 16.2894 17.2386C16.2472 17.2381 16.2055 17.2375 16.1617 17.237C16.1168 17.2375 16.0719 17.2386 16.0255 17.2397C15.979 17.2397 15.9325 17.2397 15.8844 17.2397C15.786 17.2397 15.6872 17.2408 15.5889 17.2429C15.4382 17.245 15.288 17.245 15.1373 17.244C15.0416 17.245 14.946 17.2456 14.8498 17.2466C14.8049 17.2466 14.76 17.2461 14.7135 17.2461C14.5121 17.2509 14.4025 17.2547 14.2352 17.3745C14.1145 17.5526 14.0952 17.7141 14.0947 17.9264C14.0942 17.9703 14.0936 18.0141 14.0936 18.0591C14.0936 18.1067 14.0936 18.1543 14.0936 18.2035C14.0931 18.2543 14.0931 18.3051 14.0926 18.3575C14.092 18.5281 14.0915 18.6993 14.0909 18.8699C14.0904 18.9923 14.0899 19.1143 14.0893 19.2368C14.0877 19.5689 14.0867 19.9016 14.0856 20.2337C14.0845 20.5808 14.0829 20.9279 14.0813 21.2756C14.0792 21.858 14.0771 22.441 14.0749 23.024C14.0728 23.6246 14.0706 24.2247 14.0685 24.8253C14.068 24.8622 14.068 24.8991 14.068 24.9371C14.0669 25.1232 14.0664 25.3088 14.0658 25.4944C14.0594 27.0342 14.0541 28.5745 14.0482 30.1148C13.9712 30.0726 13.8938 30.0298 13.8168 29.987C13.7521 29.9517 13.7521 29.9517 13.6864 29.9153C13.3615 29.7297 13.0729 29.4794 12.8191 29.2056C12.7774 29.1623 12.7774 29.1623 12.7352 29.1184C11.8935 28.2113 11.5857 27.2524 11.5996 26.0463C11.5996 25.9297 11.5991 25.8131 11.5985 25.6971C11.598 25.3837 11.6001 25.0702 11.6023 24.7568C11.6039 24.4279 11.6039 24.0995 11.6044 23.7706C11.6049 23.2197 11.6065 22.6688 11.6098 22.1179C11.6135 21.4103 11.6146 20.7022 11.6156 19.9946C11.6162 19.386 11.6178 18.7768 11.6194 18.1682C11.6199 17.9724 11.6204 17.7767 11.621 17.5809C11.6215 17.2739 11.6231 16.9675 11.6247 16.661C11.6253 16.5481 11.6258 16.4353 11.6258 16.3224C11.6263 16.1689 11.6274 16.016 11.6285 15.8625C11.6285 15.8176 11.6279 15.7721 11.6279 15.7261C11.6327 15.31 11.6327 15.31 11.9015 15.2865Z" fill="#81AC3F"/>
<path d="M18.7365 7.42294C18.8268 7.42294 18.9172 7.42241 19.0069 7.42187C19.2512 7.42134 19.4948 7.42134 19.7391 7.42134C19.9432 7.42134 20.1468 7.42134 20.3509 7.4208C20.833 7.42027 21.3145 7.42027 21.7965 7.4208C22.2924 7.42134 22.7883 7.42027 23.2842 7.4192C23.7112 7.41813 24.1377 7.41813 24.5646 7.41813C24.819 7.41813 25.0734 7.41813 25.3283 7.41759C25.5677 7.41652 25.8066 7.41706 26.046 7.41759C26.1336 7.41759 26.2213 7.41759 26.3089 7.41706C26.9683 7.41385 27.5572 7.42561 28.0526 7.90911C28.4737 8.38297 28.5464 8.82903 28.5528 9.44944C28.5544 9.54678 28.5544 9.54678 28.5555 9.64626C28.5587 9.85271 28.5614 10.0592 28.564 10.2656C28.5662 10.4057 28.5678 10.5459 28.5699 10.6865C28.5753 11.0299 28.5801 11.3733 28.5838 11.7161C28.6325 11.7166 28.6325 11.7166 28.6816 11.7172C29.4634 11.7225 30.2453 11.7284 31.0265 11.7343C31.4049 11.7375 31.7827 11.7401 32.1611 11.7428C32.5255 11.7455 32.89 11.7482 33.2544 11.7514C33.3939 11.7525 33.5334 11.7535 33.6729 11.7541C33.8674 11.7557 34.0619 11.7573 34.2564 11.7589C34.3147 11.7594 34.3729 11.7594 34.4328 11.7599C34.5119 11.7605 34.5119 11.7605 34.5926 11.7615C34.6385 11.7615 34.6845 11.7621 34.732 11.7626C34.8362 11.7696 34.8362 11.7696 34.8897 11.823C34.8945 11.8958 34.8961 11.968 34.8961 12.0407C34.8961 12.0867 34.8961 12.1327 34.8961 12.1798C34.8956 12.2301 34.895 12.2798 34.895 12.3317C34.895 12.4082 34.895 12.4082 34.895 12.4862C34.8945 12.6494 34.8939 12.813 34.8929 12.9767C34.8929 13.0869 34.8923 13.1976 34.8923 13.3083C34.8918 13.58 34.8907 13.8517 34.8897 14.1229C34.7283 14.2041 34.5616 14.1838 34.3841 14.1833C34.3425 14.1833 34.3008 14.1833 34.2575 14.1833C34.1159 14.1833 33.9743 14.1833 33.8326 14.1828C33.7306 14.1833 33.629 14.1833 33.527 14.1833C33.2459 14.1833 32.9643 14.1833 32.6832 14.1828C32.3802 14.1828 32.0777 14.1828 31.7747 14.1828C31.2494 14.1828 30.7246 14.1828 30.1993 14.1822C29.4399 14.1817 28.6811 14.1817 27.9217 14.1817C26.6899 14.1817 25.4581 14.1811 24.2264 14.1806C23.0299 14.1801 21.8328 14.1795 20.6363 14.1795C20.5807 14.1795 20.5807 14.1795 20.5246 14.1795C20.1543 14.1795 19.7839 14.1795 19.4136 14.1795C16.3072 14.1785 13.2007 14.1779 10.0938 14.1763C10.0024 13.994 10.0318 13.7843 10.0313 13.5832C10.0313 13.5351 10.0313 13.4869 10.0307 13.4372C10.0307 13.335 10.0307 13.2329 10.0307 13.1307C10.0302 12.974 10.0296 12.8173 10.0286 12.6606C10.028 12.5611 10.028 12.4622 10.028 12.3632C10.0275 12.3162 10.0275 12.2691 10.027 12.2204C10.028 11.8888 10.028 11.8888 10.1472 11.7696C10.2562 11.7567 10.2562 11.7567 10.3936 11.7567C10.4711 11.7567 10.4711 11.7567 10.5507 11.7567C10.6362 11.7573 10.6362 11.7573 10.7238 11.7578C10.7837 11.7578 10.8435 11.7578 10.9055 11.7578C11.1043 11.7578 11.3031 11.7583 11.5019 11.7594C11.6398 11.7594 11.7771 11.7599 11.915 11.7599C12.241 11.7599 12.5664 11.761 12.8924 11.7621C13.2627 11.7631 13.6336 11.7637 14.0045 11.7642C14.7671 11.7653 15.5302 11.7674 16.2928 11.7696C16.2922 11.7364 16.2917 11.7032 16.2917 11.669C16.2869 11.3192 16.2837 10.9694 16.281 10.6197C16.2799 10.4897 16.2789 10.3597 16.2767 10.2292C16.2532 8.52578 16.2532 8.52578 16.7299 7.95724C17.3076 7.41331 17.9927 7.42187 18.7365 7.42294Z" fill="#81AC3F"/>
<path d="M30.8284 31.5588C30.9134 31.8145 30.7958 32.0198 30.7082 32.2675C30.6889 32.322 30.6697 32.3766 30.6499 32.4327C30.201 33.6693 29.5656 34.8106 28.7443 35.8375C28.7042 35.8883 28.6646 35.9391 28.6235 35.9915C27.8983 36.8831 27.0684 37.6934 26.1257 38.3512C26.0921 38.3748 26.0589 38.3988 26.0242 38.4229C24.4488 39.5364 22.6126 40.3007 20.7283 40.7045C22.5052 41.5608 24.2767 42.1352 26.2326 42.416C26.0386 42.5337 25.8537 42.5524 25.6303 42.5786C25.5919 42.5829 25.5539 42.5872 25.5149 42.592C25.3915 42.6064 25.2675 42.6198 25.1435 42.6332C25.0804 42.6401 25.0804 42.6401 25.0163 42.6476C23.769 42.7867 22.5292 42.8273 21.2761 42.7503C21.2381 42.7481 21.2007 42.7455 21.1617 42.7433C18.54 42.5791 16.1251 41.8405 13.7278 40.8115C13.8347 40.7045 13.8347 40.7045 14.0121 40.6981C14.0874 40.6997 14.1633 40.7019 14.2387 40.7045C15.3197 40.7195 16.3869 40.4938 17.4151 40.1697C17.4151 40.1167 17.4151 40.0638 17.4151 40.0092C17.351 39.9921 17.351 39.9921 17.2852 39.9745C17.0367 39.8803 16.8267 39.7477 16.6033 39.6049C16.5585 39.576 16.513 39.5471 16.4665 39.5177C16.1197 39.2931 15.8007 39.054 15.4913 38.7791C15.4501 38.7438 15.4095 38.7091 15.3673 38.6727C14.6704 38.0624 14.0212 37.418 13.514 36.6398C13.491 36.6045 13.4681 36.5697 13.4445 36.5333C12.8124 35.5535 12.208 34.2442 12.2315 33.0564C12.3148 33.2205 12.3929 33.3863 12.4703 33.5538C13.0555 34.8053 13.7379 35.8541 14.6897 36.8537C14.7287 36.8954 14.7672 36.9371 14.8072 36.9799C15.6986 37.91 16.8647 38.6208 18.0029 39.207C18.043 39.2284 18.0836 39.2498 18.1253 39.2717C18.6955 39.5717 19.1182 39.7065 19.7664 39.5814C19.8193 39.5723 19.8722 39.5632 19.9262 39.5541C22.6864 39.0802 25.2766 37.849 27.3425 35.9472C27.4537 35.845 27.5675 35.7455 27.6819 35.6471C28.0474 35.3273 28.3793 34.9791 28.6908 34.6074C28.7154 34.578 28.74 34.5491 28.7656 34.5186C29.4684 33.68 30.1775 32.7552 30.6681 31.7727C30.7033 31.7727 30.7386 31.7727 30.775 31.7727C30.7926 31.7021 30.8102 31.6315 30.8284 31.5588Z" fill="#FAFCFC"/>
<path d="M18.2591 8.86095C18.296 8.86042 18.3334 8.86042 18.3719 8.85988C18.4964 8.85935 18.6209 8.85988 18.7454 8.85988C18.8347 8.85988 18.9239 8.85935 19.0137 8.85881C19.2563 8.85775 19.4989 8.85828 19.7415 8.85828C19.9441 8.85828 20.1461 8.85828 20.3486 8.85775C20.8258 8.85721 21.3036 8.85721 21.7808 8.85775C22.2735 8.85828 22.7667 8.85775 23.2595 8.85614C23.6822 8.85507 24.1054 8.85454 24.5281 8.85507C24.7809 8.85507 25.0336 8.85507 25.2864 8.854C25.5237 8.85347 25.7615 8.85347 25.9988 8.85454C26.0864 8.85454 26.1735 8.85454 26.2606 8.854C26.3798 8.85347 26.499 8.854 26.6176 8.85507C26.7175 8.85507 26.7175 8.85507 26.8196 8.85507C26.981 8.88181 26.981 8.88181 27.0825 8.97327C27.1504 9.11554 27.1605 9.20806 27.1595 9.36531C27.1595 9.41879 27.1595 9.47227 27.1595 9.52736C27.1584 9.58512 27.1573 9.64235 27.1568 9.70172C27.1563 9.76055 27.1563 9.81938 27.1563 9.88035C27.1552 10.0692 27.1531 10.2574 27.1509 10.4462C27.1504 10.574 27.1493 10.7019 27.1488 10.8297C27.1472 11.1431 27.1445 11.4565 27.1413 11.7699C25.9229 11.771 24.7045 11.7721 23.486 11.7726C22.9201 11.7726 22.3542 11.7731 21.7888 11.7737C21.2961 11.7742 20.8028 11.7747 20.3101 11.7747C20.0488 11.7747 19.788 11.7753 19.5267 11.7753C19.2814 11.7758 19.0356 11.7758 18.7903 11.7758C18.7 11.7758 18.6097 11.7758 18.5194 11.7764C18.3965 11.7764 18.2736 11.7764 18.1506 11.7764C18.0817 11.7764 18.0128 11.7764 17.9417 11.7764C17.7894 11.7699 17.7894 11.7699 17.736 11.7165C17.7301 11.6336 17.7279 11.5501 17.7269 11.4672C17.7263 11.4143 17.7263 11.3613 17.7258 11.3068C17.7253 11.249 17.7253 11.1912 17.7247 11.1319C17.7247 11.073 17.7242 11.0142 17.7242 10.9532C17.7237 10.8286 17.7231 10.7035 17.7231 10.5783C17.7226 10.3868 17.7205 10.1959 17.7189 10.0044C17.7189 9.88303 17.7183 9.76216 17.7183 9.64075C17.7178 9.58352 17.7167 9.52576 17.7162 9.46693C17.7162 9.41344 17.7167 9.35996 17.7167 9.30487C17.7167 9.2578 17.7162 9.21127 17.7162 9.1626C17.7664 8.85293 17.9861 8.86149 18.2591 8.86095Z" fill="#FBFDFD"/>
</svg>
